<?xml version="1.0" encoding="UTF-8" standalone="no"?>
<!DOCTYPE svg PUBLIC "-//W3C//DTD SVG 1.1//EN" "http://www.w3.org/Graphics/SVG/1.1/DTD/svg11.dtd">
<svg width="100%" height="100%" viewBox="0 0 64 64" version="1.1" xmlns="http://www.w3.org/2000/svg" xmlns:xlink="http://www.w3.org/1999/xlink" xml:space="preserve" xmlns:serif="http://www.serif.com/" style="fill-rule:evenodd;clip-rule:evenodd;stroke-linejoin:round;stroke-miterlimit:2;">
    <rect x="0" y="0" width="64" height="64" style="fill:rgb(32,32,32);"/>
    <g id="path141" transform="matrix(0.072762,0,0,0.072762,8.46208,9.91026)">
        <path d="M321.4,20.7C182.85,20.7 -27.91,379.36 41.69,499.15L41.7,499.15C79.52,564.24 214.42,591.65 344.01,585.68L253.68,489.18C245.07,480.97 236.55,471.86 228.26,462.02L227.71,461.44L227.73,461.4C165.46,387.17 117.03,274.13 150.66,228.22C178.6,190.08 264.5,169.89 345.71,170.82C417.36,171.64 485.36,188.9 506.67,224.77C544.82,288.98 456.03,463.45 374.39,515.89L431.06,576.39C507.59,563.13 572.76,537.06 601.09,499.16C684.05,388.19 459.95,20.7 321.4,20.7Z" style="fill:url(#_Linear1);fill-rule:nonzero;"/>
    </g>
    <g id="path181" transform="matrix(0.072762,0,0,0.072762,8.46208,9.91026)">
        <path d="M430.72,262.88C457.28,307.58 379.5,442.93 327.5,443.44C275.51,443.94 190.09,306.86 220.82,264.92C251.84,222.59 403.93,217.77 430.72,262.89L430.72,262.88Z" style="fill:url(#_Linear2);fill-rule:nonzero;"/>
    </g>
    <defs>
        <linearGradient id="_Linear1" x1="0" y1="0" x2="1" y2="0" gradientUnits="userSpaceOnUse" gradientTransform="matrix(-88.3638,-294.525,294.525,-88.3638,377.503,603.784)"><stop offset="0" style="stop-color:rgb(166,100,10);stop-opacity:1"/><stop offset="1" style="stop-color:rgb(242,235,75);stop-opacity:1"/></linearGradient>
        <linearGradient id="_Linear2" x1="0" y1="0" x2="1" y2="0" gradientUnits="userSpaceOnUse" gradientTransform="matrix(-19594.1,-62551.3,62551.3,-19594.1,92823.2,125662)"><stop offset="0" style="stop-color:rgb(166,100,10);stop-opacity:1"/><stop offset="1" style="stop-color:rgb(242,235,75);stop-opacity:1"/></linearGradient>
    </defs>
</svg>
